<svg xmlns="http://www.w3.org/2000/svg" width="1024" height="1024" viewBox="0 0 1024 1024" fill="none">
<path d="M334.24 224C306.24 224 282.14 244 276.99 274C253.66 420 225.07 578 221.11 730C219.96 760 240.44 784 269.44 784C299.44 784 324.96 760 325.11 730C326.78 676 333.555 621 344.91 570C347.643 556.667 355.975 550.333 369.905 551C457.275 557 552.575 497 630.575 497C645.908 497 652.77 504.667 651.16 520L629.32 728C626.275 757 646.86 780 675.86 780C704.86 780 730.275 757 733.32 728L772.905 351C773.535 345 776.866 338.667 782.9 332C815.785 295 806.93 246 776.135 225L770.36 280C769.73 286 767.205 291 762.785 295L738.58 316C729.81 323.333 721.81 323.333 714.58 316L693.785 295C689.538 291 687.73 286 688.36 280L694.135 225C657.93 246 641.205 291 661.425 327C667.111 336.333 669.465 345.667 668.485 355L664.81 390C663.34 404 655.938 411 642.605 411C548.235 405 449.73 486 379.62 468C366.566 465.333 361.073 457.333 363.14 444C372.915 389 383.11 330 382.99 274C383.14 244 363.24 224 334.24 224Z" fill="#F7F7F5" />
</svg>
